<svg id="visual" viewBox="0 0 900 600" width="900" height="600" xmlns="http://www.w3.org/2000/svg" xmlns:xlink="http://www.w3.org/1999/xlink" version="1.1"><rect x="0" y="0" width="900" height="600" fill="#002233"></rect><path d="M0 492L21.5 496.3C43 500.7 86 509.3 128.8 510C171.7 510.7 214.3 503.3 257.2 499.3C300 495.3 343 494.7 385.8 484.7C428.7 474.7 471.3 455.3 514.2 435.7C557 416 600 396 642.8 389.5C685.7 383 728.3 390 771.2 406C814 422 857 447 878.5 459.5L900 472L900 601L878.5 601C857 601 814 601 771.2 601C728.3 601 685.7 601 642.8 601C600 601 557 601 514.2 601C471.3 601 428.7 601 385.8 601C343 601 300 601 257.2 601C214.3 601 171.7 601 128.8 601C86 601 43 601 21.5 601L0 601Z" fill="#0066FF" stroke-linecap="round" stroke-linejoin="miter"></path></svg>