<svg id="visual" viewBox="0 0 900 600" width="900" height="600" xmlns="http://www.w3.org/2000/svg" xmlns:xlink="http://www.w3.org/1999/xlink" version="1.1"><rect x="0" y="0" width="900" height="600" fill="transparent"></rect><path d="M504 0L348 0L348 86L424 86L424 171L341 171L341 257L522 257L522 343L486 343L486 429L477 429L477 514L580 514L580 600L0 600L0 514L0 514L0 429L0 429L0 343L0 343L0 257L0 257L0 171L0 171L0 86L0 86L0 0L0 0Z" fill="#9900ff"></path><path d="M445 0L487 0L487 86L262 86L262 171L372 171L372 257L284 257L284 343L312 343L312 429L430 429L430 514L348 514L348 600L0 600L0 514L0 514L0 429L0 429L0 343L0 343L0 257L0 257L0 171L0 171L0 86L0 86L0 0L0 0Z" fill="#8200d9"></path><path d="M222 0L395 0L395 86L264 86L264 171L317 171L317 257L327 257L327 343L369 343L369 429L258 429L258 514L165 514L165 600L0 600L0 514L0 514L0 429L0 429L0 343L0 343L0 257L0 257L0 171L0 171L0 86L0 86L0 0L0 0Z" fill="#6c00b4"></path><path d="M74 0L47 0L47 86L134 86L134 171L219 171L219 257L40 257L40 343L64 343L64 429L133 429L133 514L44 514L44 600L0 600L0 514L0 514L0 429L0 429L0 343L0 343L0 257L0 257L0 171L0 171L0 86L0 86L0 0L0 0Z" fill="#560090"></path></svg>