<svg id="visual" viewBox="0 0 900 600" width="100%" xmlns="http://www.w3.org/2000/svg" xmlns:xlink="http://www.w3.org/1999/xlink" version="1.1"><path d="M0 493L21.5 481.2C43 469.3 86 445.7 128.8 444.2C171.7 442.7 214.3 463.3 257.2 477.2C300 491 343 498 385.8 501.8C428.7 505.7 471.3 506.3 514.2 502.2C557 498 600 489 642.8 485C685.7 481 728.3 482 771.2 472.3C814 462.7 857 442.3 878.5 432.2L900 422L900 601L878.5 601C857 601 814 601 771.2 601C728.3 601 685.7 601 642.8 601C600 601 557 601 514.2 601C471.3 601 428.7 601 385.8 601C343 601 300 601 257.2 601C214.3 601 171.7 601 128.8 601C86 601 43 601 21.5 601L0 601Z" fill="#000" stroke-linecap="round" stroke-linejoin="miter"></path></svg>