<svg id="visual" viewBox="0 0 900 600" width="900" height="600" xmlns="http://www.w3.org/2000/svg" xmlns:xlink="http://www.w3.org/1999/xlink" version="1.1"><rect x="0" y="0" width="900" height="10" fill="transparent"></rect><path d="M0 495L21.5 482C43 469 86 443 128.8 436.2C171.7 429.3 214.3 441.7 257.2 458.7C300 475.7 343 497.3 385.8 486.8C428.7 476.3 471.3 433.7 514.2 431.5C557 429.3 600 467.7 642.8 489C685.7 510.3 728.3 514.7 771.2 506C814 497.3 857 475.7 878.5 464.8L900 454L900 601L878.5 601C857 601 814 601 771.2 601C728.3 601 685.7 601 642.8 601C600 601 557 601 514.2 601C471.3 601 428.7 601 385.8 601C343 601 300 601 257.2 601C214.3 601 171.7 601 128.8 601C86 601 43 601 21.5 601L0 601Z" fill="#000" stroke-linecap="round" stroke-linejoin="miter"></path></svg>